<svg xmlns="http://www.w3.org/2000/svg" width="122" height="34" fill="none" viewBox="0 0 122 34"><g clip-path="url(#clip0_211_2736)"><path fill="#fdbd00" d="M47.296 0a6.56 6.56 0 0 1 6.562 6.562v20.569a6.56 6.56 0 0 1-6.562 6.562H31.699L43.49 0Z"/><path fill="#fdbd00" d="M8.127 33.693h14.131L34.048 0H19.92Z"/><path fill="#e8edf4" d="M45.84 33.693H31.709L19.92 0h14.126Z"/><path fill="#e8edf4" d="M6.562 0A6.56 6.56 0 0 0 0 6.562v20.569a6.56 6.56 0 0 0 6.562 6.562H22.16L10.372 0h-3.81"/><path fill="#e8edf4" d="m69.765 10.78 1.311-8.68h2.763L71.38 15.91h-2.797l-1.61-8.142-1.596 8.142H62.57L60.1 2.1h2.782l1.302 8.672 1.62-8.672h2.344l1.62 8.681Z"/><path fill="#e8edf4" d="M79.259 15.911q-.111-.239-.23-.798c-.478.659-1.132.988-1.954.988s-1.576-.284-2.14-.853c-.568-.568-.847-1.306-.847-2.209 0-1.077.344-1.905 1.027-2.493q1.03-.882 2.967-.903h.818v-.828q0-.693-.24-.977c-.16-.19-.388-.284-.693-.284-.668 0-1.007.394-1.007 1.177h-2.683q-.001-1.421 1.067-2.349c.714-.618 1.611-.922 2.698-.922s1.995.294 2.613.877q.927.877.927 2.508v4.827q.021 1.332.38 2.08v.16Zm-1.586-1.915c.3 0 .549-.06.758-.18q.314-.18.464-.428v-2.134h-.643q-.68-.001-1.078.439-.395.434-.394 1.167.002 1.136.893 1.136"/><path fill="#e8edf4" d="M86.26 3.121v2.523h1.376v2.01H86.26v5.101q0 .606.164.837.166.231.638.23.39.001.639-.065l-.02 2.09a4.2 4.2 0 0 1-1.481.254c-1.735 0-2.608-.993-2.628-2.982v-5.46h-1.187v-2.01h1.187V3.126h2.683Z"/><path fill="#e8edf4" d="M92.428 13.892q1.166-.002 1.187-1.536h2.523q-.023 1.681-1.032 2.713c-.673.688-1.551 1.032-2.618 1.032-1.322 0-2.329-.414-3.027-1.232q-1.047-1.234-1.062-3.635v-.818Q88.4 8 89.426 6.726q1.03-1.27 3.042-1.271 1.698 0 2.677 1.047c.654.698.983 1.69.998 2.972H93.62c-.005-.584-.1-1.027-.285-1.341q-.276-.471-.912-.47-.702-.001-1.007.5c-.205.334-.31.982-.324 1.944v1.052c0 .843.04 1.426.124 1.76q.126.502.41.733.284.234.807.235Z"/><path fill="#e8edf4" d="M99.728 6.547q.873-1.092 2.144-1.092 1.404 0 2.134.987.732.988.738 2.942v6.527h-2.692V9.414q-.001-.903-.28-1.306-.277-.404-.907-.404-.734 0-1.137.673v7.534h-2.683V1.341h2.683v5.21Z"/><path fill="#e8edf4" d="M68.718 32.162h-8.143v-1.88l3.74-4.767c.474-.658.823-1.241 1.047-1.74q.335-.749.334-1.43c0-.62-.105-1.098-.319-1.447q-.32-.523-.917-.523c-.44 0-.783.204-1.038.613q-.382.613-.384 1.72h-2.693q-.001-1.27.53-2.323c.353-.704.842-1.247 1.48-1.636q.957-.583 2.16-.583 1.847 0 2.871 1.017 1.018 1.018 1.018 2.897-.002 1.166-.564 2.368-.562 1.197-2.044 2.962l-1.775 2.543h4.697Z"/><path fill="#e8edf4" d="M80.012 30.596a5.1 5.1 0 0 1-1.98 1.316c-.783.295-1.636.44-2.568.44-1.586 0-2.822-.494-3.7-1.476q-1.318-1.474-1.356-4.294v-2.488q-.001-2.857 1.246-4.398 1.249-1.54 3.64-1.54c1.501 0 2.628.368 3.391 1.111q1.143 1.108 1.322 3.48h-2.713q-.114-1.314-.549-1.8c-.289-.323-.748-.478-1.366-.478q-1.13-.002-1.64.828c-.344.548-.519 1.426-.534 2.627v2.503q.001 1.887.564 2.748.56.86 1.855.858c.548 0 .997-.11 1.336-.334l.25-.17v-2.533h-1.955v-2.104h4.752v5.704Z"/><path fill="#e8edf4" d="M85.995 32.351c-1.38 0-2.453-.414-3.226-1.231q-1.158-1.235-1.157-3.53v-.818c0-1.621.354-2.868 1.062-3.75q1.064-1.317 3.047-1.317c1.322 0 2.264.414 2.912 1.237q.978 1.235.997 3.66v1.316h-5.34c.04.768.204 1.332.504 1.686q.449.532 1.376.533 1.344-.001 2.249-.937l1.052 1.62q-.496.681-1.431 1.107a5 5 0 0 1-2.04.424Zm-1.69-6.297h2.683v-.25q-.021-.927-.305-1.406-.284-.48-.987-.479-.703 0-1.017.509-.323.51-.374 1.625"/><path fill="#e8edf4" d="M94.268 19.372v2.523h1.376v2.01h-1.376v5.101q0 .606.164.837.166.231.639.23.39.001.638-.065l-.02 2.09a4.2 4.2 0 0 1-1.481.254c-1.735 0-2.608-.993-2.628-2.982v-5.46h-1.187V21.9h1.187v-2.523h2.683Z"/><path fill="#e8edf4" d="M99.733 22.798q.873-1.092 2.144-1.092c.938 0 1.646.329 2.134.987q.732.988.738 2.942v6.527h-2.692v-6.497c0-.604-.095-1.037-.28-1.307q-.277-.404-.907-.404-.733 0-1.137.674v7.534H97.05V17.587h2.683Z"/><path fill="#e8edf4" d="M110.827 32.351c-1.381 0-2.453-.414-3.226-1.231q-1.158-1.235-1.157-3.53v-.818c0-1.621.354-2.868 1.062-3.75q1.065-1.317 3.047-1.317c1.322 0 2.264.414 2.912 1.237q.978 1.235.997 3.66v1.316h-5.34c.04.768.204 1.332.504 1.686q.449.532 1.376.533 1.344-.001 2.249-.937l1.052 1.62q-.495.681-1.431 1.107a5 5 0 0 1-2.04.424Zm-1.69-6.297h2.683v-.25q-.022-.927-.304-1.406-.285-.48-.988-.479-.704 0-1.017.509-.321.51-.374 1.625"/><path fill="#e8edf4" d="m121.045 24.488-.893-.075q-1.101.001-1.491.967v6.782h-2.692V21.895h2.533l.074 1.112q.635-1.302 1.756-1.302.455-.001.738.125l-.03 2.658Z"/></g><defs><clipPath id="clip0_211_2736"><path fill="#fff" d="M0 0h121.075v33.693H0Z"/></clipPath></defs></svg>